<svg xmlns="http://www.w3.org/2000/svg" width="84.035" height="84.035" viewBox="0 0 84.035 84.035"><path d="M56.273,38.265h24.01a6.008,6.008,0,0,0,6-6V8.253a6.008,6.008,0,0,0-6-6H56.273a6.008,6.008,0,0,0-6,6H23.259a6.008,6.008,0,0,0-6,6V26.26h-9a6.008,6.008,0,0,0-6,6v24.01a6.008,6.008,0,0,0,6,6h6V74.28a6.008,6.008,0,0,0,6,6H50.27a6.008,6.008,0,0,0,6,6h24.01a6.008,6.008,0,0,0,6-6V56.273a6.008,6.008,0,0,0-6-6H56.273a6.008,6.008,0,0,0-6,6V74.28H20.258V62.275H32.263a6.008,6.008,0,0,0,6-6V32.263a6.008,6.008,0,0,0-6-6h-9V14.255H50.27V32.263A6.008,6.008,0,0,0,56.273,38.265Zm0,42.018V68.278h24.01V80.283Zm24.01-24.01v6H56.273v-6Zm-72.03,0V44.268h24.01V56.273Zm24.01-18.008H8.253v-6h24.01Zm24.01-6V20.258h24.01V32.263Zm24.01-24.01v6H56.273v-6Z" transform="translate(-2.25 -2.25)"/></svg>