<svg xmlns="http://www.w3.org/2000/svg" width="160.754" height="112.941" viewBox="0 0 160.754 112.941"><defs><style>.a,.b,.c,.d{fill:none;}.b{stroke:#fff;}.b,.d{stroke-width:3px;}.c{stroke:#707070;}.d{stroke:#000;}.e,.f{stroke:none;}.f{fill:#000;}</style></defs><g transform="translate(-970 -4736)"><g class="a" transform="translate(991.176 4736)"><path class="e" d="M0,0H66.657L91.765,22.6v90.343H0Z"/><path class="f" d="M 3.999992370605469 3.999992370605469 L 3.999992370605469 108.9411697387695 L 87.76470184326172 108.9411697387695 L 87.76470184326172 24.37923431396484 L 65.12172698974609 3.999992370605469 L 3.999992370605469 3.999992370605469 M -7.62939453125e-06 -7.62939453125e-06 L 66.65672302246094 -7.62939453125e-06 L 91.76470184326172 22.59780883789062 L 91.76470184326172 112.9411697387695 L -7.62939453125e-06 112.9411697387695 L -7.62939453125e-06 -7.62939453125e-06 Z"/></g><rect width="85" height="48" transform="translate(1037 4782.941)"/><line class="b" x2="50.588" y2="29.412" transform="translate(1029.412 4777.765)"/><line class="b" x1="50.588" y2="29.412" transform="translate(1079.412 4777.765)"/><path d="M11101-182l26.612,25.344H11101Z" transform="translate(-10044.673 4918)"/><rect width="12" height="49" transform="translate(970 4773.941)"/><path class="c" d="M10929-153.224" transform="translate(-9959 4923.078)"/><path d="M10939.827-151.025l-5.723-7.508-5.721,7.508Z" transform="translate(-9958.383 4922.141)"/><line class="d" x2="55" transform="translate(1008 4773.941)"/><line class="d" x2="18" transform="translate(1008 4789.941)"/><line class="d" x2="18" transform="translate(1008 4806.941)"/><line class="d" x2="18" transform="translate(1008 4822.941)"/></g></svg>